<?xml version="1.0" encoding="UTF-8" standalone="no"?>
<!DOCTYPE svg PUBLIC "-//W3C//DTD SVG 1.1//EN" "http://www.w3.org/Graphics/SVG/1.1/DTD/svg11.dtd">
<svg width="100%" height="100%" viewBox="0 0 1120 699" version="1.1" xmlns="http://www.w3.org/2000/svg" xmlns:xlink="http://www.w3.org/1999/xlink" xml:space="preserve" xmlns:serif="http://www.serif.com/" style="fill-rule:evenodd;clip-rule:evenodd;stroke-miterlimit:10;">
    <circle cx="292.609" cy="213" r="213" style="fill:rgb(31,41,55);"/>
    <g transform="matrix(1,0,0,1,-31.3909,-100.5)">
        <path d="M31.391,151.642C31.391,229.14 80.009,291.851 140.092,291.851" style="fill:rgb(55,65,81);fill-rule:nonzero;"/>
    </g>
    <g transform="matrix(1,0,0,1,-31.3909,-100.5)">
        <path d="M140.092,291.851C140.092,213.482 194.347,150.067 261.395,150.067" style="fill:rgb(0,167,241);fill-rule:nonzero;"/>
    </g>
    <g transform="matrix(1,0,0,1,-31.3909,-100.5)">
        <path d="M70.775,158.668C70.775,232.282 101.778,291.851 140.092,291.851" style="fill:rgb(0,167,241);fill-rule:nonzero;"/>
    </g>
    <g transform="matrix(1,0,0,1,-31.3909,-100.5)">
        <path d="M140.092,291.851C140.092,191.713 202.802,110.683 280.3,110.683" style="fill:rgb(55,65,81);fill-rule:nonzero;"/>
    </g>
    <g transform="matrix(1,0,0,1,-31.3909,-100.5)">
        <path d="M117.224,292.839C117.224,292.839 132.639,292.364 137.285,289.056C141.931,285.748 160.998,281.798 162.151,287.103C163.303,292.409 185.317,313.491 167.913,313.632C150.509,313.772 127.474,310.921 122.837,308.096C118.2,305.272 117.224,292.839 117.224,292.839Z" style="fill:rgb(168,168,168);fill-rule:nonzero;"/>
    </g>
    <g transform="matrix(1,0,0,1,-31.3909,-100.5)">
        <path d="M168.224,311.785C150.82,311.925 127.785,309.074 123.148,306.249C119.616,304.098 118.209,296.38 117.738,292.819C117.412,292.833 117.224,292.839 117.224,292.839C117.224,292.839 118.2,305.272 122.837,308.096C127.474,310.921 150.509,313.772 167.913,313.632C172.937,313.591 174.673,311.804 174.577,309.156C173.879,310.756 171.963,311.755 168.224,311.785Z" style="fill-opacity:0.2;fill-rule:nonzero;"/>
    </g>
    <ellipse cx="198.609" cy="424.5" rx="187" ry="25.44" style="fill:rgb(55,65,81);"/>
    <ellipse cx="198.609" cy="424.5" rx="157" ry="21.359" style="fill-opacity:0.1;"/>
    <ellipse cx="836.609" cy="660.5" rx="283" ry="38.5" style="fill:rgb(75,85,99);"/>
    <ellipse cx="310.609" cy="645.5" rx="170" ry="23.127" style="fill:rgb(75,85,99);"/>
    <g transform="matrix(1,0,0,1,-31.3909,-100.5)">
        <path d="M494,726.5C584,749.5 757,696.5 776,636.5" style="fill:none;fill-rule:nonzero;stroke:rgb(31,41,55);stroke-width:2px;"/>
    </g>
    <g transform="matrix(1,0,0,1,-31.3909,-100.5)">
        <path d="M341,359.5C341,359.5 471,323.5 479,439.5C487,555.5 372,588.5 462,611.5" style="fill:none;fill-rule:nonzero;stroke:rgb(31,41,55);stroke-width:2px;"/>
    </g>
    <g transform="matrix(1,0,0,1,-31.3909,-100.5)">
        <path d="M215.402,637.783C215.402,637.783 254.475,626.963 256.879,661.828C259.284,696.692 224.72,706.611 251.77,713.523" style="fill:none;fill-rule:nonzero;stroke:rgb(31,41,55);stroke-width:2px;"/>
    </g>
    <g transform="matrix(1,0,0,1,-31.3909,-100.5)">
        <path d="M810.096,663.74L802.218,714.035C802.218,714.035 763.436,734.638 790.705,735.244C817.973,735.85 946.438,735.244 946.438,735.244C946.438,735.244 971.283,735.244 931.895,713.429L924.017,660.71L810.096,663.74Z" style="fill:rgb(55,65,81);fill-rule:nonzero;"/>
    </g>
    <g transform="matrix(1,0,0,1,-31.3909,-100.5)">
        <path d="M785.219,734.698C791.412,729.188 802.218,723.446 802.218,723.446L810.096,673.151L924.017,673.258L931.895,722.84C941.08,727.927 946.77,731.827 950.098,734.818C955.157,733.664 960.685,729.375 931.895,713.429L924.017,660.71L810.096,663.74L802.218,714.035C802.218,714.035 769.63,731.35 785.219,734.698Z" style="fill-opacity:0.1;fill-rule:nonzero;"/>
    </g>
    <path d="M1091.69,230.734C1091.69,220.775 1083.6,212.689 1073.64,212.689L596.479,212.689C586.519,212.689 578.433,220.775 578.433,230.734L578.433,552.163C578.433,562.122 586.519,570.208 596.479,570.208L1073.64,570.208C1083.6,570.208 1091.69,562.122 1091.69,552.163L1091.69,230.734Z" style="fill:rgb(55,65,81);"/>
    <rect x="595.703" y="231.777" width="478.713" height="267.837" style="fill:rgb(107,114,128);"/>
    <circle cx="835.059" cy="223.293" r="3.03" style="fill:rgb(242,242,242);"/>
    <g transform="matrix(1,0,0,1,-31.3909,-100.5)">
        <path d="M1123.08,621.322L1123.08,652.663C1123.08,652.664 1123.08,652.664 1123.08,652.665C1123.08,662.563 1114.93,670.708 1105.03,670.708C1105.03,670.708 1105.03,670.708 1105.03,670.708L627.869,670.708C627.869,670.708 627.868,670.708 627.867,670.708C617.969,670.708 609.824,662.563 609.824,652.665C609.824,652.664 609.824,652.664 609.824,652.663L609.824,621.322L1123.08,621.322Z" style="fill:rgb(55,65,81);fill-rule:nonzero;"/>
    </g>
    <path d="M968.978,667.466L968.978,673.526L642.968,673.526L642.968,668.678L643.417,667.466L651.452,645.651L962.312,645.651L968.978,667.466Z" style="fill:rgb(55,65,81);fill-rule:nonzero;"/>
    <g transform="matrix(1,0,0,1,-31.3909,-100.5)">
        <path d="M1125.83,762.034C1125.23,764.573 1122.99,767.251 1117.93,769.784C1099.75,778.873 1062.78,767.36 1062.78,767.36C1062.78,767.36 1034.3,762.512 1034.3,749.787C1035.1,749.239 1035.94,748.744 1036.8,748.302C1044.44,744.259 1069.78,734.281 1114.72,748.725C1118.03,749.764 1120.98,751.702 1123.26,754.322C1125.08,756.454 1126.51,759.157 1125.83,762.034Z" style="fill:rgb(55,65,81);fill-rule:nonzero;"/>
    </g>
    <g transform="matrix(1,0,0,1,-31.3909,-100.5)">
        <path d="M1125.83,762.034C1103.58,770.56 1083.74,771.196 1063.39,757.059C1053.12,749.932 1043.8,748.169 1036.8,748.302C1044.44,744.259 1069.78,734.281 1114.72,748.725C1118.03,749.764 1120.98,751.702 1123.26,754.322C1125.08,756.454 1126.51,759.157 1125.83,762.034Z" style="fill-opacity:0.1;fill-rule:nonzero;"/>
    </g>
    <ellipse cx="1066.54" cy="654.135" rx="7.878" ry="2.424" style="fill:rgb(242,242,242);"/>
    <circle cx="835.059" cy="545.667" r="11.513" style="fill:rgb(242,242,242);"/>
    <path d="M968.978,667.466L968.978,673.526L642.968,673.526L642.968,668.678L643.417,667.466L968.978,667.466Z" style="fill-opacity:0.1;fill-rule:nonzero;"/>
    <rect x="108.609" y="159" width="208" height="242" style="fill:rgb(55,65,81);"/>
    <rect x="87.609" y="135" width="250" height="86" style="fill:rgb(75,85,99);"/>
    <rect x="87.609" y="237" width="250" height="86" style="fill:rgb(75,85,99);"/>
    <rect x="87.609" y="339" width="250" height="86" style="fill:rgb(75,85,99);"/>
    <rect x="271.609" y="150" width="16" height="16" style="fill:rgb(0,167,241);fill-opacity:0.4;"/>
    <rect x="294.609" y="150" width="16" height="16" style="fill:rgb(0,167,241);fill-opacity:0.8;"/>
    <rect x="317.609" y="150" width="16" height="16" style="fill:rgb(0,167,241);"/>
    <rect x="271.609" y="251" width="16" height="16" style="fill:rgb(0,167,241);fill-opacity:0.4;"/>
    <rect x="294.609" y="251" width="16" height="16" style="fill:rgb(0,167,241);fill-opacity:0.8;"/>
    <rect x="317.609" y="251" width="16" height="16" style="fill:rgb(0,167,241);"/>
    <rect x="271.609" y="352" width="16" height="16" style="fill:rgb(0,167,241);fill-opacity:0.4;"/>
    <rect x="294.609" y="352" width="16" height="16" style="fill:rgb(0,167,241);fill-opacity:0.8;"/>
    <rect x="317.609" y="352" width="16" height="16" style="fill:rgb(0,167,241);"/>
    <circle cx="316.609" cy="538" r="79" style="fill:rgb(55,65,81);"/>
    <rect x="280.609" y="600" width="24" height="43" style="fill:rgb(55,65,81);"/>
    <rect x="328.609" y="600" width="24" height="43" style="fill:rgb(55,65,81);"/>
    <ellipse cx="300.609" cy="643.5" rx="20" ry="7.5" style="fill:rgb(55,65,81);"/>
    <ellipse cx="348.609" cy="642.5" rx="20" ry="7.5" style="fill:rgb(55,65,81);"/>
    <circle cx="318.609" cy="518" r="27" style="fill:white;"/>
    <circle cx="318.609" cy="518" r="9" style="fill:rgb(63,61,86);"/>
    <g transform="matrix(1,0,0,1,-31.3909,-100.5)">
        <path d="M271.367,565.032C264.988,536.465 285.379,507.598 316.911,500.558C348.443,493.517 379.176,510.968 385.555,539.535C391.934,568.103 371.037,578.639 339.505,585.68C307.972,592.721 277.746,593.6 271.367,565.032Z" style="fill:rgb(0,167,241);fill-rule:nonzero;"/>
    </g>
    <g transform="matrix(0.919334,-0.393479,0.393479,0.919334,-238.287,112.98)">
        <ellipse cx="417.215" cy="611.344" rx="39.5" ry="12.4" style="fill:rgb(55,65,81);"/>
    </g>
    <g transform="matrix(0.919334,-0.393479,0.393479,0.919334,-271.08,59.0208)">
        <ellipse cx="269.215" cy="664.344" rx="39.5" ry="12.4" style="fill:rgb(55,65,81);"/>
    </g>
    <g transform="matrix(1,0,0,1,-31.3909,-100.5)">
        <path d="M394,661.5C394,669.232 374.091,684.5 352,684.5C329.909,684.5 309,670.232 309,662.5C309,654.768 329.909,656.5 352,656.5C374.091,656.5 394,653.768 394,661.5Z" style="fill:white;fill-rule:nonzero;"/>
    </g>
</svg>
